<?xml version="1.0" encoding="utf-8"?>
<!-- Svg Vector Icons : http://www.onlinewebfonts.com/icon -->
<!DOCTYPE svg PUBLIC "-//W3C//DTD SVG 1.1//EN" "http://www.w3.org/Graphics/SVG/1.1/DTD/svg11.dtd">
<svg version="1.1" xmlns="http://www.w3.org/2000/svg" xmlns:xlink="http://www.w3.org/1999/xlink" x="0px" y="0px" viewBox="0 0 256 256" enable-background="new 0 0 256 256" xml:space="preserve">
<metadata> Svg Vector Icons : http://www.onlinewebfonts.com/icon </metadata>
<g><g><path fill="#000000" d="M121.2,232.5l15.9-8.2l-11.3-52.4l3.7-6.5l-0.3-6.6c-7-0.4-9.1-0.4-16.1,0l-0.3,6.6l3.7,6.5l-11.3,52.4L121.2,232.5z"/><path fill="#000000" d="M72.9,104.7c4,14.6,9.8,25.6,17.1,33.5c7.9,8.6,17.4,13.5,28.2,15.4l1,0.2l1-0.2c11.9-2.7,21.5-7.8,29-16.3c7-7.9,12.3-18.6,16.2-32.8c3.3-2,5.7-5.3,7.4-9.7c1.8-4.8,2.7-11,2.6-18.3l0-2.9l-2.3-1.6c-0.3-0.2-0.5-0.4-0.8-0.6c3-42.6-2.6-67.1-50.7-60.3c-16.3,2.3-34-2.8-44.1,5.1C64.6,29,63.7,48.1,67.1,70.5c-0.8,0.4-1.5,0.9-2.3,1.5l-2.3,1.6l0,2.9c-0.1,7.5,0.8,13.8,2.6,18.6C66.9,99.5,69.5,102.7,72.9,104.7z M80,81.5c0.2-0.5,0.3-1.1,0.5-1.7l0.1,0l0.2-1.2c0.8-3.3,1.6-7.5,2.4-10.8c0.3-1,0.6-1.9,1-2.8c11.2,9.1,31.2,10.1,48.4-6.1l-3.1,8.9l3.1,0.6l3.5-6l-0.4,4.2l3.3,0.5l2-6.9c4.1,2.5,8.6,5.8,12.6,4c1.3,3.2,2.4,6.7,3,10.5l0.9,4.9l1.5-0.1l0.7,2.5c1.8-0.2,3.3-0.3,4.9-0.3c-0.2,3.5-0.8,6.5-1.7,8.9c-0.9,2.4-2.2,4-3.8,4.6l-2.6,1l-0.7,2.8c-3.4,13.7-8.1,23.6-14.3,30.5c-5.8,6.5-13.2,10.6-22.6,12.9c-8.2-1.7-15.4-5.5-21.5-12c-6.5-7-11.6-17.2-15.2-31.2l-0.8-3l-2.8-0.9c-1.6-0.5-2.9-2.1-3.9-4.5c-0.9-2.4-1.5-5.4-1.8-9.1C75.7,81.3,78.6,80.5,80,81.5z"/><path fill="#000000" d="M206.4,186l25.5-64.2l-6.1-2.8l-17.3,43.6l-5.8,14c-4.1-9-9-16.9-14.6-22.5l-1.7-1.7l-2.3,0.1l-27.5,1v12l25.4-0.9c6.6,7.5,12.2,19.1,16,31.9c3.8,12.6,5.9,26.1,5.6,37.5H35.8c0.5-9.9,1.7-22,4.6-33.7c3.2-13.1,8.5-25.7,17.1-34.6l23,0.2v-12l-25.2-0.2h-2.1l-1.6,1.5c-11.5,10.7-18.3,26.2-22.2,42.1c-3.8,15.4-5,31.1-5.2,42.7l-0.1,6.1h5.8h178.8h5.1l0.6-5.4c1.4-13.9-0.8-31.6-5.7-47.8C207.9,190.5,207.2,188.3,206.4,186z"/></g></g>
</svg>